<svg xmlns="http://www.w3.org/2000/svg" width="54" height="33" viewBox="0 0 54 33"><g><g><path fill="#5c85ad" d="M31.378 21.575h-9.373l-2.04-.218-1.898-.623-1.725-.996-1.503-1.32-1.237-1.607-.927-1.824-.618-2.024-.204-2.173.204-2.179.618-2.023.927-1.831 1.237-1.6 1.503-1.29 1.725-.995 1.898-.623L22.005 0h31.966v32.95H43.843V10.2h-21.25l-.415.174-.173.417.173.411.415.175h9.373l2.04.218 1.898.622 1.725.99 1.497 1.32 1.236 1.594.934 1.868.618 2.024.204 2.179-.204 2.173-.618 2.024-.934 1.83-1.236 1.6-1.497 1.314-1.725.996-1.898.623-2.04.218H0V0h10.128v22.751h21.25l.415-.174.173-.411-.173-.417-.415-.175"/></g></g></svg>