<svg xmlns="http://www.w3.org/2000/svg" width="343" height="46" viewBox="0 0 343 46"><g><g><g><path fill="#5c85ad" d="M41.688 28.462H29.235l-2.71-.287-2.523-.821-2.291-1.315-1.996-1.741-1.643-2.12-1.233-2.406-.82-2.67-.272-2.867.271-2.875.821-2.67 1.233-2.414 1.643-2.111 1.996-1.7 2.291-1.315 2.522-.821L29.235 0h42.468v43.47H58.248V13.455H30.015l-.55.23-.23.55.23.542.55.23h12.453l2.711.288 2.522.821 2.292 1.306 1.988 1.742 1.643 2.103 1.24 2.464.821 2.67.271 2.875-.27 2.866-.822 2.67-1.24 2.415-1.643 2.111-1.988 1.733-2.292 1.315-2.522.821-2.71.288H0V0h13.455v30.015h28.233l.55-.23.23-.542-.23-.55-.55-.23"/></g><g><path fill="#5c85ad" d="M112.825 41.68h-11.5V25.956h4.345v12.65h7.122z"/></g><g><path fill="#5c85ad" d="M118.928 41.68h-4.173V30.753h4.156zm0-12.815h-4.198v-2.908h4.198z"/></g><g><path fill="#5c85ad" d="M127.624 38.904c-1.38 0-2.078-1.01-2.078-3.04 0-2.028.698-3.039 2.078-3.039 1.375 0 2.062 1.014 2.062 3.04 0 2.029-.681 3.039-2.062 3.039zm2.177-8.173l-.115 1.585a3.475 3.475 0 0 0-3.368-1.922 4.641 4.641 0 0 0-3.63 1.479 5.7 5.7 0 0 0-1.348 3.942 5.898 5.898 0 0 0 1.224 3.82 4.304 4.304 0 0 0 3.557 1.643c1.73 0 2.916-.583 3.557-1.75v1.24c.047.691-.086 1.382-.386 2.005a1.939 1.939 0 0 1-1.766.821c-1.134 0-1.742-.451-1.742-1.347h-3.869c.006 2.497 1.884 3.746 5.636 3.746a8.7 8.7 0 0 0 2.464-.37 5.249 5.249 0 0 0 2.292-1.158 4.493 4.493 0 0 0 1.248-1.914 8.018 8.018 0 0 0 .288-2.39v-9.406z"/></g><g><path fill="#5c85ad" d="M140.54 41.68h-4.181V25.956h4.148v5.988a4.28 4.28 0 0 1 3.45-1.552 4.157 4.157 0 0 1 2.94 1.076 3.754 3.754 0 0 1 1.16 2.875v7.31h-4.108v-6.407c0-1.478-.534-2.226-1.594-2.226-1.19 0-1.782.822-1.782 2.374z"/></g><g><path fill="#5c85ad" d="M149.773 30.754h2.12v-1.643l4.18-1.585v3.228h2.407v2.604h-2.407v4.337c-.017.322.002.644.058.961.082.501.328.748.731.748.532.009 1.064-.013 1.594-.066v2.464c-.731.143-1.474.217-2.218.222a5.865 5.865 0 0 1-3.212-.616c-.731-.517-1.1-1.569-1.1-3.138v-4.928h-2.12z"/></g><g><path fill="#5c85ad" d="M164.887 41.68h-4.156V30.753h4.156zm0-12.815h-4.197v-2.908h4.197z"/></g><g><path fill="#5c85ad" d="M171.91 30.757l.066 1.208a4.28 4.28 0 0 1 3.426-1.57 4.107 4.107 0 0 1 2.932 1.077 3.754 3.754 0 0 1 1.159 2.875v7.31h-4.108v-6.39c0-1.479-.525-2.218-1.585-2.218-1.191 0-1.782.822-1.782 2.366v6.267h-4.149v-8.124c0-.928-.04-1.864-.123-2.8z"/></g><g><path fill="#5c85ad" d="M188.107 38.904c-1.385.006-2.078-1.007-2.078-3.04.01-2.025.703-3.038 2.078-3.038s2.062 1.013 2.062 3.039c.01 2.02-.676 3.034-2.062 3.04zm2.177-8.173l-.115 1.585a3.483 3.483 0 0 0-3.376-1.922 4.625 4.625 0 0 0-3.664 1.479 5.7 5.7 0 0 0-1.347 3.943 5.857 5.857 0 0 0 1.224 3.82 4.296 4.296 0 0 0 3.557 1.642c1.736 0 2.919-.583 3.548-1.75l.05 1.24c.047.691-.086 1.382-.386 2.005a1.939 1.939 0 0 1-1.767.822c-1.133 0-1.741-.452-1.741-1.348h-3.869c0 2.498 1.873 3.746 5.635 3.746a8.782 8.782 0 0 0 2.464-.37 5.249 5.249 0 0 0 2.292-1.158 4.575 4.575 0 0 0 1.249-1.914 8.018 8.018 0 0 0 .287-2.39v-9.405z"/></g><g><path fill="#5c85ad" d="M216.926 30.577h-4.338v-.115a1.585 1.585 0 0 0-.657-1.356 2.637 2.637 0 0 0-1.593-.435 2.07 2.07 0 0 0-1.306.419 1.265 1.265 0 0 0-.567 1.027c.014.536.333 1.018.821 1.24a7.706 7.706 0 0 0 1.692.6l2.859.69a5.8 5.8 0 0 1 2.522 1.413 4.23 4.23 0 0 1 1.092 3.072 4.107 4.107 0 0 1-2.086 3.68 8.88 8.88 0 0 1-4.814 1.2c-4.567 0-6.88-1.78-6.941-5.34h4.354c-.034.63.231 1.238.714 1.643a2.875 2.875 0 0 0 1.914.608 3.031 3.031 0 0 0 1.536-.395c.453-.22.748-.671.764-1.174a1.544 1.544 0 0 0-.96-1.405 12.89 12.89 0 0 0-2.465-.723 18.672 18.672 0 0 1-3.245-1.018 3.705 3.705 0 0 1-2.366-3.664v-.148a4.197 4.197 0 0 1 2.17-3.762 9.093 9.093 0 0 1 4.542-.978 8.214 8.214 0 0 1 4.46 1.044 3.852 3.852 0 0 1 1.873 3.483c.015.13.023.262.025.394z"/></g><g><path fill="#5c85ad" d="M223.14 34.811c.14-1.478.764-2.25 1.93-2.349h.058a1.643 1.643 0 0 1 1.364.707c.333.48.5 1.058.476 1.642zm6.53-2.628c-.947-1.194-2.48-1.79-4.6-1.79a6.177 6.177 0 0 0-4.205 1.38 5.06 5.06 0 0 0-1.692 4c.027 2.174.506 3.745 1.437 4.715.931.969 2.492 1.453 4.683 1.453a6.473 6.473 0 0 0 3.466-.821 3.91 3.91 0 0 0 2.062-3.047h-3.853a1.766 1.766 0 0 1-2.02 1.56c-1.265 0-1.89-.821-1.89-2.464v-.123h7.845c0-2.16-.419-3.779-1.232-4.863z"/></g><g><path fill="#5c85ad" d="M237.232 30.754l.106 2.03c.427-1.578 1.588-2.366 3.483-2.366h.173v3.499h-.863c-1.878 0-2.82 1.13-2.826 3.392v4.387h-4.148v-8.132a26.607 26.607 0 0 0-.14-2.793z"/></g><g><path fill="#5c85ad" d="M250.284 41.68h-4.46l-4.157-10.926h4.387l2.201 7.664 2.284-7.664h3.86z"/></g><g><path fill="#5c85ad" d="M260.396 41.68h-4.156V30.753h4.156zm0-12.815h-4.206v-2.908h4.206z"/></g><g><path fill="#5c85ad" d="M274.445 34.58h-4.19c0-1.175-.542-1.759-1.643-1.759-1.1 0-1.593 1.134-1.593 3.393s.534 3.392 1.593 3.392c1.06 0 1.643-.772 1.643-2.193h4.157a4 4 0 0 1-1.692 3.458 6.49 6.49 0 0 1-3.837 1.134h-.09c-3.948 0-5.922-1.917-5.922-5.75a5.495 5.495 0 0 1 1.766-4.378 6.333 6.333 0 0 1 4.222-1.487h.082a6.72 6.72 0 0 1 3.672.92 3.926 3.926 0 0 1 1.832 3.27z"/></g><g><path fill="#5c85ad" d="M281.85 32.46h.091a1.643 1.643 0 0 1 1.364.706c.333.481.5 1.058.476 1.643h-3.828c.156-1.479.772-2.251 1.898-2.35zm4.584-.255c-.944-1.191-2.472-1.791-4.6-1.791a6.177 6.177 0 0 0-4.19 1.421 5.06 5.06 0 0 0-1.642 4c.006 2.13.474 3.68 1.405 4.65.93.969 2.491 1.454 4.682 1.454a6.473 6.473 0 0 0 3.466-.822 3.918 3.918 0 0 0 2.07-3.047h-3.844a1.766 1.766 0 0 1-2.02 1.56c-1.257 0-1.89-.821-1.89-2.464v-.123h7.845c0-2.16-.42-3.779-1.282-4.838z"/></g><g><path fill="#5c85ad" d="M299.669 34.126h-3.951c0-.87-.46-1.298-1.389-1.298a.821.821 0 0 0-.969.978c0 .32.378.575 1.142.772l3.113.78a2.9 2.9 0 0 1 2.21 3.015c0 2.42-1.747 3.633-5.24 3.639a7.475 7.475 0 0 1-3.64-.698 3.286 3.286 0 0 1-1.643-3.18h3.951a1.75 1.75 0 0 0 0 .222c.004.291.122.568.329.773.226.299.578.477.953.484.92 0 1.388-.337 1.388-1.002 0-.493-.559-.895-1.643-1.216a23.82 23.82 0 0 1-3.121-.96 2.752 2.752 0 0 1-1.643-2.564 2.933 2.933 0 0 1 1.725-2.743 7.073 7.073 0 0 1 3.327-.707c3.228-.024 4.953 1.24 5.1 3.705z"/></g><g><path fill="#5c85ad" d="M313.7 41.68h-4.346V25.956h4.345z"/></g><g><path fill="#5c85ad" d="M320.657 30.757l.057 1.208a4.28 4.28 0 0 1 3.426-1.57 4.107 4.107 0 0 1 2.932 1.077 3.754 3.754 0 0 1 1.159 2.875v7.31h-4.108v-6.39c0-1.479-.534-2.218-1.593-2.218-1.183 0-1.783.822-1.783 2.366v6.267h-4.107v-8.124c0-.928-.05-1.864-.131-2.8z"/></g><g><path fill="#5c85ad" d="M342.172 34.58h-4.157c0-1.175-.534-1.759-1.602-1.759s-1.643 1.134-1.643 3.393.534 3.392 1.643 3.392c1.11 0 1.602-.772 1.602-2.193h4.157a4.017 4.017 0 0 1-1.742 3.458 6.572 6.572 0 0 1-3.844 1.134h-.082c-3.96 0-5.937-1.917-5.931-5.75a5.52 5.52 0 0 1 1.766-4.378 6.35 6.35 0 0 1 4.247-1.487h.082a6.72 6.72 0 0 1 3.672.92 3.885 3.885 0 0 1 1.832 3.27z"/></g></g></g></svg>