<?xml version="1.0" encoding="UTF-8"?>
<svg width="156px" height="163px" viewBox="0 0 156 163" version="1.1" xmlns="http://www.w3.org/2000/svg" xmlns:xlink="http://www.w3.org/1999/xlink">
    <title>Icons / Controls_DMX</title>
    <g id="Icons-/-Controls_DMX" stroke="none" stroke-width="1" fill="none" fill-rule="evenodd">
        <path d="M56.28,50.87 L56.28,61.68 L32,61.68 L32,50.62 L41,50.62 L41,31 L47.65,31 L47.65,50.62 L56.28,50.87 Z M47.21,64.67 L40.67,64.67 L40.67,121.42 L47.21,121.42 L47.21,64.67 Z M81.74,109.09 L75.2,109.09 L75.2,121.42 L81.74,121.42 L81.74,109.09 Z M81.74,94.82 L81.74,31 L75.2,31 L75.2,94.82 L66.06,94.82 L66.06,105.25 L90.55,105.25 L90.55,94.82 L81.74,94.82 Z M115.88,85 L109.34,85 L109.34,121.42 L115.88,121.42 L115.88,85 Z M115.88,71.09 L115.88,31 L109.34,31 L109.34,71.09 L100.2,71.09 L100.2,81.52 L124.7,81.52 L124.7,71.09 L115.88,71.09 Z" id="Shape" fill="#000000" fill-rule="nonzero"></path>
    </g>
</svg>