<?xml version="1.0" encoding="UTF-8"?>
<svg width="163px" height="163px" viewBox="0 0 163 163" version="1.1" xmlns="http://www.w3.org/2000/svg" xmlns:xlink="http://www.w3.org/1999/xlink">
    <title>Icons / Controls_ELV_Reverse_Phase</title>
    <g id="Icons-/-Controls_ELV_Reverse_Phase" stroke="none" stroke-width="1" fill="none" fill-rule="evenodd">
        <g id="Controls_ELV_Reverse_Phase" transform="translate(0.000000, 52.000000)" fill="#020202" fill-rule="nonzero">
            <path d="M160.869495,21.3050473 L128.911924,21.3050473 L128.911924,39.9797406 C111.859692,38.4883873 98.4948723,21.9523929 98.3555701,21.7393424 C87.6784637,8.28438568 76.0180475,0.983309873 63.6693143,0 L63.3579328,0 L63.2677961,0 C44.4210235,0.573597426 33.2030967,15.3560225 29.4501307,21.3050473 L33.4407299,21.3050473 C37.7754876,15.1675548 47.7478886,3.98240499 62.9072491,3.27769958 L62.9072491,22.0753067 L94.4223306,22.0753067 C94.897597,22.6325156 95.3646692,23.1979188 95.8235472,23.7797104 C96.4299216,24.5335813 110.753469,42.3151015 129.723155,43.3311884 L129.805098,43.3311884 C133.672783,43.3311884 153.207873,42.2413533 163,21.2558818 L160.869495,21.3050473 Z M63.726674,21.3050473 L63.726674,3.32686507 C74.2398954,4.24462095 84.3270159,10.2673939 93.7422079,21.2558818 L63.726674,21.3050473 Z M129.854263,40.1518198 L129.764126,40.1518198 L129.764126,22.0753067 L158.91107,22.0753067 C153.24187,32.9318329 142.099663,39.8289411 129.854263,40.0616831 L129.854263,40.1518198 Z M23.7141564,6.6291474 L32.7769958,6.6291474 L24.8039916,20.9854715 L33.9815504,35.8826161 L23.7141564,35.8826161 L14.9053388,21.2558818 L23.7141564,6.6291474 Z M8.80881762,6.6291474 L17.8962397,6.6291474 L9.89865272,20.9854715 L19.0762115,35.8826161 L8.80881762,35.8826161 L0,21.2558818 L8.80881762,6.6291474 Z" id="Shape"></path>
        </g>
    </g>
</svg>