<?xml version="1.0" encoding="UTF-8"?>
<svg width="163px" height="163px" viewBox="0 0 163 163" version="1.1" xmlns="http://www.w3.org/2000/svg" xmlns:xlink="http://www.w3.org/1999/xlink">
    <title>Icons / Controls_Integral_Dimmer</title>
    <g id="Icons-/-Controls_Integral_Dimmer" stroke="none" stroke-width="1" fill="none" fill-rule="evenodd">
        <path d="M89.6501658,45.88 C89.6501658,49.6797191 86.5698849,52.76 82.7701658,52.76 C78.9704467,52.76 75.8901658,49.6797191 75.8901658,45.88 C75.8901658,42.0802809 78.9704467,39 82.7701658,39 C86.5698849,39 89.6501658,42.0802809 89.6501658,45.88 Z M63.6501658,53.94 C63.6501658,51.3869339 62.1116962,49.0854488 59.7525829,48.1093696 C57.3934696,47.1332903 54.6786432,47.6749825 52.8747851,49.4817039 C51.0709269,51.2884253 50.5335413,54.0041073 51.513361,56.3616696 C52.4931807,58.7192319 54.7971029,60.2540461 57.3501658,60.250008 C60.8256531,60.2389711 63.6357,57.4155004 63.6301658,53.94 L63.6501658,53.94 Z M50.4201658,73.48 C50.4201658,71.1696113 49.0278809,69.0869083 46.8929722,68.2036979 C44.7580635,67.3204875 42.3013081,67.8108465 40.669049,69.4459692 C39.0367899,71.0810919 38.550738,73.5387031 39.4376892,75.6720604 C40.3246404,77.8054177 42.4097807,79.1940462 44.7201658,79.1900088 C47.8698058,79.184484 50.4201658,76.6296448 50.4201658,73.48 Z M47.4201658,90.88 C44.4930566,90.88 42.1201658,93.2528908 42.1201658,96.18 C42.1201658,99.1071092 44.4930566,101.48 47.4201658,101.48 C50.347275,101.48 52.7201658,99.1071092 52.7201658,96.18 C52.7201658,93.2684409 50.371642,90.901974 47.4601658,90.88 L47.4201658,90.88 Z M60.8901658,107.87999 C58.902442,107.875956 57.1083796,109.070754 56.3458413,110.9064 C55.5833029,112.742047 56.0027458,114.856348 57.4082817,116.261884 C58.8138176,117.66742 60.928119,118.086863 62.7637654,117.324325 C64.5994117,116.561786 65.79421,114.767724 65.790176,112.78 C65.7793045,110.09715 63.6129489,107.921879 60.9301658,107.9 L60.8901658,107.87999 Z M82.2501658,113.66 C79.7483159,113.66 77.7201658,115.68815 77.7201658,118.19 C77.7201658,120.69185 79.7483159,122.72 82.2501658,122.72 C84.7520157,122.72 86.7801658,120.69185 86.7801658,118.19 C86.774732,115.709243 84.7708745,113.696459 82.2901658,113.68 L82.2501658,113.66 Z M102.540166,106.849988 C100.807254,106.845956 99.2429131,107.887259 98.5778869,109.48749 C97.9128608,111.087722 98.2784034,112.931048 99.5037604,114.156405 C100.729117,115.381762 102.572444,115.747305 104.172675,115.082279 C105.772907,114.417253 106.81421,112.852912 106.810178,111.12 C106.793973,108.787307 104.912757,106.897196 102.580166,106.87 L102.540166,106.849988 Z M115.090166,89.85 C112.966095,89.8776247 111.261321,91.6122182 111.270492,93.7364489 C111.279738,95.8606796 112.999486,97.5804279 115.123717,97.5896735 C117.247948,97.5988449 118.982541,95.894071 119.010179,93.77 C119.012845,92.7410577 118.6046,91.7536315 117.876087,91.0269964 C117.147574,90.3003613 116.159098,89.8946652 115.130166,89.9 L115.090166,89.85 Z M115.090166,74.85 C116.656338,74.854047 118.070547,73.9137219 118.672702,72.4679271 C119.274856,71.0221323 118.946228,69.3559387 117.840207,68.2470521 C116.734186,67.1381654 115.068848,66.8052277 113.6215,67.4036395 C112.174152,68.0020513 111.230171,69.4138222 111.230166,70.98 C111.205774,72.0271164 111.606855,73.0394035 112.341804,73.7856593 C113.076753,74.5319152 114.082799,74.9484034 115.130166,74.94 L115.090166,74.85 Z" id="Shape" fill="#050606" fill-rule="nonzero"></path>
    </g>
</svg>