<svg xmlns="http://www.w3.org/2000/svg" width="173" height="15" viewBox="0 0 173 15"><g><g><g><g><path fill="#5c85ad" d="M8.204 11.906H-.032V.647H3.08v9.059h5.1z"/></g><g><path fill="#5c85ad" d="M12.575 11.906H9.586V4.082h2.977zm0-9.177H9.569V.647h3.006z"/></g><g><path fill="#5c85ad" d="M18.803 9.918c-.989 0-1.489-.723-1.489-2.176 0-1.453.5-2.176 1.489-2.176.984 0 1.476.725 1.476 2.176 0 1.453-.488 2.176-1.476 2.176zm1.559-5.852L20.279 5.2a2.488 2.488 0 0 0-2.412-1.377 3.324 3.324 0 0 0-2.6 1.06 4.082 4.082 0 0 0-.964 2.823 4.223 4.223 0 0 0 .876 2.735 3.082 3.082 0 0 0 2.547 1.176c1.24 0 2.088-.417 2.547-1.252v.888c.034.494-.061.989-.276 1.435a1.388 1.388 0 0 1-1.265.588c-.812 0-1.247-.323-1.247-.964h-2.77c.003 1.788 1.348 2.682 4.035 2.682a6.23 6.23 0 0 0 1.764-.265 3.76 3.76 0 0 0 1.642-.83c.41-.371.719-.843.894-1.37a5.741 5.741 0 0 0 .206-1.712V4.083z"/></g><g><path fill="#5c85ad" d="M28.052 11.906h-2.994V.647h2.97v4.288A3.065 3.065 0 0 1 30.5 3.824a2.977 2.977 0 0 1 2.106.77c.56.535.862 1.285.83 2.059v5.235h-2.942V7.3c0-1.059-.382-1.594-1.141-1.594-.853 0-1.277.588-1.277 1.7z"/></g><g><path fill="#5c85ad" d="M34.664 4.082h1.518V2.906l2.994-1.135v2.311h1.723v1.865h-1.723v3.106c-.013.23.001.461.04.688.06.359.236.535.524.535.381.007.763-.01 1.142-.047v1.765a8.642 8.642 0 0 1-1.589.159 4.2 4.2 0 0 1-2.3-.441c-.523-.37-.788-1.124-.788-2.247v-3.53h-1.518z"/></g><g><path fill="#5c85ad" d="M45.488 11.906H42.51V4.082h2.977zm0-9.177h-3.006V.647h3.006z"/></g><g><path fill="#5c85ad" d="M50.517 4.085l.047.864a3.065 3.065 0 0 1 2.453-1.123 2.941 2.941 0 0 1 2.1.77c.56.535.863 1.285.83 2.06v5.234h-2.941V7.314c0-1.059-.377-1.588-1.136-1.588-.853 0-1.276.588-1.276 1.694v4.488h-2.97V6.09c0-.664-.03-1.335-.09-2.005z"/></g><g><path fill="#5c85ad" d="M62.116 9.919c-.992.004-1.488-.722-1.488-2.177.008-1.45.504-2.176 1.488-2.176s1.477.725 1.477 2.176c.007 1.447-.485 2.173-1.477 2.177zm1.559-5.853L63.593 5.2a2.494 2.494 0 0 0-2.418-1.376 3.312 3.312 0 0 0-2.624 1.058 4.082 4.082 0 0 0-.965 2.824 4.194 4.194 0 0 0 .877 2.735 3.077 3.077 0 0 0 2.547 1.177c1.243 0 2.09-.418 2.541-1.253l.036.888c.033.494-.062.989-.277 1.435a1.388 1.388 0 0 1-1.265.588c-.811 0-1.247-.323-1.247-.964h-2.77c0 1.788 1.34 2.682 4.035 2.682a6.289 6.289 0 0 0 1.765-.265 3.76 3.76 0 0 0 1.641-.829c.41-.374.717-.845.894-1.37a5.741 5.741 0 0 0 .206-1.712V4.083z"/></g><g><path fill="#5c85ad" d="M82.754 3.955h-3.106v-.082a1.135 1.135 0 0 0-.47-.97 1.888 1.888 0 0 0-1.142-.312 1.482 1.482 0 0 0-.935.3.906.906 0 0 0-.406.735c.01.384.238.729.588.888.386.19.793.334 1.212.43l2.047.494c.678.179 1.299.527 1.806 1.011.544.6.826 1.392.782 2.2a2.941 2.941 0 0 1-1.494 2.636 6.36 6.36 0 0 1-3.447.858c-3.27 0-4.928-1.274-4.97-3.823h3.117c-.024.45.166.887.512 1.176.39.306.876.46 1.37.436a2.17 2.17 0 0 0 1.1-.283.97.97 0 0 0 .547-.84 1.106 1.106 0 0 0-.688-1.007 9.23 9.23 0 0 0-1.765-.517 13.371 13.371 0 0 1-2.323-.73 2.653 2.653 0 0 1-1.694-2.623v-.106a3.006 3.006 0 0 1 1.553-2.694 6.512 6.512 0 0 1 3.253-.7 5.883 5.883 0 0 1 3.194.747 2.759 2.759 0 0 1 1.341 2.494c.011.094.017.188.018.282z"/></g><g><path fill="#5c85ad" d="M87.204 6.988c.1-1.06.548-1.612 1.383-1.683h.041c.39-.003.755.187.977.506.238.345.358.758.34 1.177zm4.677-1.883c-.678-.855-1.776-1.282-3.294-1.282a4.424 4.424 0 0 0-3.012.988 3.623 3.623 0 0 0-1.212 2.865c.02 1.557.363 2.682 1.03 3.376.666.695 1.784 1.042 3.353 1.042a4.636 4.636 0 0 0 2.482-.589 2.8 2.8 0 0 0 1.477-2.182h-2.76a1.265 1.265 0 0 1-1.446 1.118c-.906 0-1.353-.589-1.353-1.765v-.088h5.617c0-1.547-.3-2.706-.882-3.483z"/></g><g><path fill="#5c85ad" d="M97.296 4.082l.076 1.453c.306-1.13 1.137-1.694 2.494-1.694h.124v2.506h-.618c-1.345 0-2.02.81-2.024 2.43v3.14h-2.97V6.095a19.052 19.052 0 0 0-.1-2z"/></g><g><path fill="#5c85ad" d="M106.643 11.906h-3.194l-2.977-7.824h3.141l1.577 5.489 1.635-5.489h2.765z"/></g><g><path fill="#5c85ad" d="M113.884 11.906h-2.976V4.082h2.976zm0-9.177h-3.012V.647h3.012z"/></g><g><path fill="#5c85ad" d="M123.945 6.822h-3c0-.842-.388-1.26-1.177-1.26-.788 0-1.141.812-1.141 2.43s.382 2.43 1.141 2.43c.76 0 1.177-.553 1.177-1.571h2.976a2.865 2.865 0 0 1-1.211 2.476 4.647 4.647 0 0 1-2.748.812h-.064c-2.828 0-4.242-1.372-4.242-4.117a3.935 3.935 0 0 1 1.265-3.136 4.536 4.536 0 0 1 3.024-1.065h.059a4.812 4.812 0 0 1 2.63.66 2.812 2.812 0 0 1 1.31 2.34z"/></g><g><path fill="#5c85ad" d="M129.249 5.303h.064c.39-.003.755.187.977.506.238.345.358.758.341 1.177h-2.741c.111-1.06.553-1.612 1.359-1.683zm3.282-.182c-.676-.853-1.77-1.282-3.294-1.282a4.424 4.424 0 0 0-3 1.017 3.623 3.623 0 0 0-1.177 2.865c.004 1.526.34 2.635 1.006 3.33.667.694 1.785 1.04 3.353 1.04a4.636 4.636 0 0 0 2.483-.588 2.806 2.806 0 0 0 1.482-2.182h-2.753a1.265 1.265 0 0 1-1.447 1.118c-.9 0-1.353-.589-1.353-1.765v-.088h5.618c0-1.547-.3-2.706-.918-3.465z"/></g><g><path fill="#5c85ad" d="M142.009 6.497h-2.83c0-.624-.33-.93-.994-.93a.588.588 0 0 0-.694.7c0 .23.27.412.818.554l2.229.558a2.076 2.076 0 0 1 1.582 2.16c0 1.732-1.25 2.601-3.753 2.605a5.353 5.353 0 0 1-2.606-.5 2.353 2.353 0 0 1-1.176-2.276h2.83a1.252 1.252 0 0 0 0 .158.794.794 0 0 0 .235.553.876.876 0 0 0 .682.347c.659 0 .994-.24.994-.717 0-.353-.4-.641-1.176-.87a17.058 17.058 0 0 1-2.236-.69 1.97 1.97 0 0 1-1.176-1.834 2.1 2.1 0 0 1 1.235-1.965 5.065 5.065 0 0 1 2.383-.506c2.311-.018 3.547.888 3.653 2.653z"/></g><g><path fill="#5c85ad" d="M152.056 11.906h-3.112V.647h3.112z"/></g><g><path fill="#5c85ad" d="M157.039 4.085l.041.864a3.065 3.065 0 0 1 2.453-1.123 2.941 2.941 0 0 1 2.1.77c.56.535.863 1.285.83 2.06v5.234h-2.942V7.314c0-1.059-.382-1.588-1.14-1.588-.848 0-1.277.588-1.277 1.694v4.488h-2.942V6.09c0-.664-.035-1.335-.094-2.005z"/></g><g><path fill="#5c85ad" d="M172.446 6.822h-2.976c0-.842-.383-1.26-1.148-1.26-.764 0-1.176.812-1.176 2.43s.382 2.43 1.176 2.43c.795 0 1.148-.553 1.148-1.571h2.976a2.876 2.876 0 0 1-1.247 2.476c-.81.551-1.773.835-2.753.812h-.059c-2.835 0-4.25-1.372-4.247-4.117a3.953 3.953 0 0 1 1.265-3.136 4.547 4.547 0 0 1 3.041-1.065h.059a4.812 4.812 0 0 1 2.63.66 2.782 2.782 0 0 1 1.311 2.34z"/></g></g></g></g></svg>