<svg xmlns="http://www.w3.org/2000/svg" width="187" height="25" viewBox="0 0 187 25"><g><g><g><g><path fill="#fff" d="M23.156 15.469h-6.768l-1.473-.156-1.37-.447-1.246-.714-1.085-.947-.893-1.151-.67-1.308-.446-1.451-.147-1.558.147-1.563.447-1.45.67-1.313.892-1.148L12.3 1.34l1.246-.714 1.37-.446L16.388 0h23.08v23.625h-7.312V7.312H16.812l-.299.125-.125.3.125.294.3.125h6.767l1.473.156 1.371.447 1.246.71 1.08.946.893 1.143.674 1.34.446 1.45.148 1.563-.148 1.558-.446 1.45-.674 1.313-.893 1.147-1.08.942-1.246.715-1.37.446-1.474.156H.5V0h7.312v16.312h15.344l.3-.125.124-.294-.125-.3-.299-.124"/></g><g><path fill="#fff" d="M61.817 22.652h-6.25v-8.545h2.361v6.875h3.87z"/></g><g><path fill="#fff" d="M65.134 22.652h-2.268v-5.938h2.259zm0-6.965h-2.282v-1.58h2.282z"/></g><g><path fill="#fff" d="M69.86 21.143c-.75 0-1.13-.549-1.13-1.651 0-1.103.38-1.652 1.13-1.652.747 0 1.12.55 1.12 1.652 0 1.102-.37 1.651-1.12 1.651zm1.183-4.441l-.062.861a1.888 1.888 0 0 0-1.83-1.044 2.522 2.522 0 0 0-1.974.803 3.098 3.098 0 0 0-.732 2.143 3.205 3.205 0 0 0 .665 2.076 2.34 2.34 0 0 0 1.933.893c.94 0 1.585-.317 1.933-.951v.674a2.17 2.17 0 0 1-.21 1.09c-.216.31-.583.48-.96.446-.616 0-.946-.246-.946-.733h-2.103c.003 1.358 1.024 2.036 3.063 2.036.454-.002.905-.07 1.34-.2.46-.104.888-.32 1.245-.63.312-.283.545-.64.678-1.04.117-.423.17-.861.156-1.3v-5.111z"/></g><g><path fill="#fff" d="M76.88 22.652h-2.273v-8.545h2.254v3.255a2.326 2.326 0 0 1 1.875-.844 2.259 2.259 0 0 1 1.599.585c.425.406.654.975.629 1.562v3.973h-2.232v-3.482c0-.803-.29-1.21-.866-1.21-.648 0-.969.447-.969 1.29z"/></g><g><path fill="#fff" d="M81.897 16.714h1.152v-.893l2.272-.861v1.754h1.308v1.415h-1.308v2.358c-.01.174.001.35.031.522.045.272.179.406.398.406.289.005.578-.007.866-.036v1.34c-.397.077-.801.117-1.206.12a3.187 3.187 0 0 1-1.745-.335c-.397-.28-.598-.852-.598-1.705v-2.678h-1.152z"/></g><g><path fill="#fff" d="M90.111 22.652h-2.259v-5.938h2.26zm0-6.965H87.83v-1.58h2.281z"/></g><g><path fill="#fff" d="M93.928 16.716l.036.656a2.326 2.326 0 0 1 1.862-.852 2.232 2.232 0 0 1 1.593.584c.425.406.655.976.63 1.563v3.973h-2.232v-3.473c0-.804-.286-1.206-.862-1.206-.647 0-.969.447-.969 1.286v3.406h-2.254v-4.415c0-.504-.023-1.013-.067-1.522z"/></g><g><path fill="#fff" d="M102.73 21.144c-.753.003-1.129-.548-1.129-1.652.006-1.101.382-1.652 1.13-1.652.746 0 1.12.55 1.12 1.652.006 1.098-.368 1.649-1.12 1.652zm1.183-4.442l-.062.861a1.893 1.893 0 0 0-1.835-1.044 2.513 2.513 0 0 0-1.99.803 3.098 3.098 0 0 0-.733 2.143c-.03.749.206 1.484.665 2.076a2.335 2.335 0 0 0 1.933.893c.944 0 1.586-.317 1.929-.951l.026.674a2.17 2.17 0 0 1-.21 1.09c-.216.31-.582.48-.96.446-.615 0-.946-.246-.946-.732h-2.102c0 1.357 1.018 2.035 3.062 2.035.454-.003.905-.07 1.34-.2.46-.104.888-.32 1.245-.63.31-.284.544-.642.679-1.04.117-.423.17-.86.156-1.3v-5.111z"/></g><g><path fill="#fff" d="M118.392 16.618h-2.357v-.063a.862.862 0 0 0-.357-.736 1.433 1.433 0 0 0-.866-.237 1.125 1.125 0 0 0-.71.228.687.687 0 0 0-.308.558.763.763 0 0 0 .447.674c.292.144.601.253.92.326l1.553.375c.514.136.986.4 1.37.768a2.3 2.3 0 0 1 .594 1.67 2.232 2.232 0 0 1-1.134 2c-.792.46-1.7.687-2.616.651-2.482 0-3.74-.967-3.772-2.902h2.366a1.09 1.09 0 0 0 .388.893c.296.232.665.349 1.04.33.293.004.581-.07.835-.214a.737.737 0 0 0 .415-.638.84.84 0 0 0-.522-.764 7.005 7.005 0 0 0-1.34-.392 10.148 10.148 0 0 1-1.763-.554 2.013 2.013 0 0 1-1.285-1.991v-.08a2.281 2.281 0 0 1 1.178-2.045 4.942 4.942 0 0 1 2.47-.531 4.464 4.464 0 0 1 2.423.567 2.094 2.094 0 0 1 1.018 1.893c.008.07.013.142.013.214z"/></g><g><path fill="#fff" d="M121.77 18.92c.076-.804.415-1.224 1.05-1.278h.03a.893.893 0 0 1 .741.384c.181.262.272.575.26.893zm3.55-1.43c-.516-.648-1.35-.973-2.5-.973a3.357 3.357 0 0 0-2.287.75 2.75 2.75 0 0 0-.92 2.175c.016 1.181.276 2.035.782 2.562.506.527 1.354.79 2.545.79.657.03 1.31-.124 1.884-.446a2.125 2.125 0 0 0 1.12-1.656h-2.094a.96.96 0 0 1-1.098.848c-.687 0-1.027-.447-1.027-1.34v-.066h4.264c0-1.175-.228-2.054-.67-2.643z"/></g><g><path fill="#fff" d="M129.428 16.714l.058 1.103c.232-.857.863-1.286 1.893-1.286h.094v1.902h-.469c-1.02 0-1.533.615-1.536 1.844v2.384h-2.254v-4.42a14.458 14.458 0 0 0-.076-1.518z"/></g><g><path fill="#fff" d="M136.522 22.652h-2.424l-2.26-5.938h2.385l1.196 4.165 1.241-4.165h2.098z"/></g><g><path fill="#fff" d="M142.017 22.652h-2.259v-5.938h2.26zm0-6.965h-2.285v-1.58h2.285z"/></g><g><path fill="#fff" d="M149.652 18.793h-2.277c0-.638-.294-.955-.892-.955-.599 0-.866.616-.866 1.843 0 1.228.29 1.844.866 1.844.575 0 .892-.42.892-1.192h2.26a2.174 2.174 0 0 1-.92 1.88 3.527 3.527 0 0 1-2.085.616h-.05c-2.145 0-3.218-1.042-3.218-3.125a2.987 2.987 0 0 1 .96-2.38 3.442 3.442 0 0 1 2.295-.808h.044c.7-.028 1.392.146 1.996.5.611.386.986 1.054.995 1.777z"/></g><g><path fill="#fff" d="M153.677 17.641h.05a.893.893 0 0 1 .74.384c.181.261.272.575.26.893h-2.081c.085-.804.42-1.223 1.031-1.277zm2.491-.138c-.513-.648-1.343-.974-2.5-.974a3.357 3.357 0 0 0-2.276.773 2.75 2.75 0 0 0-.893 2.174c.003 1.158.257 2 .763 2.527.506.526 1.354.79 2.545.79.657.03 1.31-.125 1.884-.447a2.13 2.13 0 0 0 1.125-1.656h-2.09a.96.96 0 0 1-1.098.848c-.683 0-1.027-.446-1.027-1.339v-.067h4.264c0-1.174-.228-2.054-.697-2.63z"/></g><g><path fill="#fff" d="M163.36 18.547h-2.147c0-.473-.25-.706-.754-.706a.446.446 0 0 0-.527.532c0 .174.206.312.62.42l1.693.423c.746.181 1.253.873 1.2 1.639 0 1.315-.949 1.975-2.848 1.978a4.062 4.062 0 0 1-1.977-.38 1.786 1.786 0 0 1-.893-1.728h2.147a.95.95 0 0 0 0 .12.603.603 0 0 0 .179.42c.123.163.314.26.518.264.5 0 .754-.183.754-.545 0-.268-.303-.486-.893-.66a12.946 12.946 0 0 1-1.696-.523 1.496 1.496 0 0 1-.893-1.393 1.594 1.594 0 0 1 .937-1.49 3.844 3.844 0 0 1 1.809-.385c1.754-.013 2.691.675 2.772 2.014z"/></g><g><path fill="#fff" d="M170.986 22.652h-2.362v-8.545h2.362z"/></g><g><path fill="#fff" d="M174.767 16.716l.031.656a2.326 2.326 0 0 1 1.862-.852 2.232 2.232 0 0 1 1.594.584c.425.406.654.976.63 1.563v3.973h-2.233v-3.473c0-.804-.29-1.206-.866-1.206-.643 0-.969.447-.969 1.286v3.406h-2.232v-4.415c0-.504-.027-1.013-.071-1.522z"/></g><g><path fill="#fff" d="M186.46 18.793h-2.26c0-.638-.29-.955-.87-.955-.58 0-.893.616-.893 1.843 0 1.228.29 1.844.893 1.844s.87-.42.87-1.192h2.26a2.183 2.183 0 0 1-.947 1.88 3.571 3.571 0 0 1-2.089.616h-.045c-2.151 0-3.226-1.042-3.223-3.125a3 3 0 0 1 .96-2.38 3.45 3.45 0 0 1 2.308-.808h.045c.7-.028 1.392.146 1.995.5.615.383.99 1.053.996 1.777z"/></g></g></g></g></svg>