<?xml version="1.0" encoding="UTF-8"?>
<svg width="163px" height="163px" viewBox="0 0 163 163" version="1.1" xmlns="http://www.w3.org/2000/svg" xmlns:xlink="http://www.w3.org/1999/xlink">
    <title>Icons / Controls_Lutron_Hi-Lume</title>
    <g id="Icons-/-Controls_Lutron_Hi-Lume" stroke="none" stroke-width="1" fill="none" fill-rule="evenodd">
        <path d="M85,39 L83.81,59.45 L79.65,59.45 L78.32,39 L85,39 Z M94.28,41 L87.69,60.38 L91.53,62 L100.4,43.5 L94.28,41 Z M108.28,48.88 L94.77,64.31 L97.72,67.24 L113,53.54 L108.28,48.88 Z M118.2,61.5 L99.82,70.63 L101.43,74.46 L120.73,67.59 L118.2,61.5 Z M122.57,76.94 L102.08,78.4 L102.08,82.56 L122.54,83.56 L122.57,76.94 Z M120.68,92.85 L101.21,86.45 L99.66,90.31 L118.2,99 L120.68,92.85 Z M112.91,106.85 L97.35,93.56 L94.44,96.56 L108.27,111.65 L112.91,106.85 Z M100.38,116.85 L91.06,98.66 L87.25,100.31 L94.25,119.55 L100.38,116.85 Z M85,121.42 L83.31,101 L79.16,101.07 L78.32,121.53 L85,121.42 Z M69,119.71 L75.24,100.19 L71.37,98.67 L62.83,117.28 L69,119.71 Z M54.91,112.05 L68.12,96.38 L65.12,93.5 L50.12,107.5 L54.91,112.05 Z M44.78,99.6 L63,90.14 L61.33,86.33 L42.1,93.51 L44.78,99.6 Z M40.16,84.23 L60.57,82.4 L60.47,78.25 L40,77.58 L40.16,84.23 Z M41.74,68.23 L61.31,74.31 L62.8,70.43 L44.12,62.05 L41.74,68.23 Z M49.28,54.09 L65.06,67.17 L67.92,64.17 L53.85,49.26 L49.28,54.09 Z M61.65,43.87 L71.26,62 L75.05,60.29 L67.71,41.14 L61.65,43.87 Z" id="Shape" fill="#050606" fill-rule="nonzero"></path>
    </g>
</svg>