<?xml version="1.0" encoding="UTF-8"?>
<svg width="163px" height="163px" viewBox="0 0 163 163" version="1.1" xmlns="http://www.w3.org/2000/svg" xmlns:xlink="http://www.w3.org/1999/xlink">
    <title>Icons / Controls_Lutron_EcoSystem</title>
    <g id="Icons-/-Controls_Lutron_EcoSystem" stroke="none" stroke-width="1" fill="none" fill-rule="evenodd">
        <g id="Controls_Lutron-EcoSystem" transform="translate(40.000000, 40.000000)" fill="#050606" fill-rule="nonzero">
            <path d="M45,0 L43.81,20.45 L39.65,20.45 L38.32,0 L45,0 Z M54.28,2 L47.69,21.38 L51.53,23 L60.4,4.5 L54.28,2 Z M68.28,9.88 L54.77,25.31 L57.72,28.24 L73,14.54 L68.28,9.88 Z M78.2,22.5 L59.82,31.63 L61.43,35.46 L80.73,28.59 L78.2,22.5 Z M82.57,37.94 L62.08,39.4 L62.08,43.56 L82.54,44.56 L82.57,37.94 Z M80.68,53.85 L61.21,47.45 L59.66,51.31 L78.2,60 L80.68,53.85 Z M72.91,67.85 L57.35,54.56 L54.44,57.56 L68.27,72.65 L72.91,67.85 Z M60.38,77.85 L51.06,59.66 L47.25,61.31 L54.25,80.55 L60.38,77.85 Z M45,82.42 L43.31,62 L39.16,62.07 L38.32,82.53 L45,82.42 Z M29,80.71 L35.24,61.19 L31.37,59.67 L22.83,78.28 L29,80.71 Z M14.91,73.05 L28.12,57.38 L25.12,54.5 L10.12,68.5 L14.91,73.05 Z M4.78,60.6 L23,51.14 L21.33,47.33 L2.1,54.51 L4.78,60.6 Z M0.16,45.23 L20.57,43.4 L20.47,39.25 L0,38.58 L0.16,45.23 Z M1.74,29.23 L21.31,35.31 L22.8,31.43 L4.12,23.05 L1.74,29.23 Z M9.28,15.09 L25.06,28.17 L27.92,25.17 L13.85,10.26 L9.28,15.09 Z M21.65,4.87 L31.26,23 L35.05,21.29 L27.71,2.14 L21.65,4.87 Z M39.77,31.8 L39.77,37.87 L49.57,37.87 L49.57,43.52 L39.77,43.52 L39.77,50.1 L50.85,50.1 L50.85,56 L32.46,56 L32.46,26 L50.85,26 L50.85,31.8 L39.77,31.8 Z" id="Shape"></path>
        </g>
    </g>
</svg>