<svg xmlns="http://www.w3.org/2000/svg" width="23" height="22" viewBox="0 0 23 22"><g><g clip-path="url(#clip-6246EA88-373C-4D83-B804-2F2EBE33D013)"><path fill="#838383" d="M22.304 0c.178 0 .356.066.492.2a.669.669 0 0 1 0 .96L1.666 21.8a.702.702 0 0 1-.492.2.702.702 0 0 1-.492-.2.669.669 0 0 1 0-.96L21.812.2zM0 17.257V4.787c0-1.148.953-2.079 2.128-2.079h16.328L8.164 12.761 6.759 11.39a.541.541 0 0 0-.752 0l-3.17 3.097v2.079H4.27l-2.748 2.684zm2.482-9.699c0 1.34 1.114 2.425 2.488 2.425 1.373 0 2.487-1.086 2.487-2.425 0-1.34-1.114-2.425-2.487-2.425zm20.214-2.771v12.47c0 1.148-.952 2.079-2.128 2.079H4.977l2.837-2.771h12.045v-4.85l-3.54-3.458 5.363-5.239z"/></g></g></svg>