<?xml version="1.0" encoding="UTF-8"?>
<svg width="163px" height="163px" viewBox="0 0 163 163" version="1.1" xmlns="http://www.w3.org/2000/svg" xmlns:xlink="http://www.w3.org/1999/xlink">
    <title>Icons / Controls_Triac_Forward_Phase</title>
    <g id="Icons-/-Controls_Triac_Forward_Phase" stroke="none" stroke-width="1" fill="none" fill-rule="evenodd">
        <g id="Controls_Triac_Forward_Phase" transform="translate(0.000000, 60.000000)" fill="#000000" fill-rule="nonzero">
            <path d="M129.896898,21.3039763 C124.368791,32.6068536 112.979199,39.8645544 100.399085,40.1006384 C99.7599658,40.1006384 99.1208465,40.0023124 98.4981149,39.920374 L98.4981149,21.2548133 L68.5414467,21.2548133 C57.9632031,8.12009249 46.4180868,0.966872769 34.2092696,0 L33.9060976,0 L33.8159654,0 C14.9947218,0.573568592 3.75277736,15.3552506 0,21.3039763 L0.622731614,21.3039763 L0.622731614,21.3039763 L33.6602825,21.3039763 L33.6602825,3.27753481 L33.9634545,3.27753481 C45.3692756,4.17885688 56.2752727,11.0698738 66.3700799,23.7621274 C66.96823,24.5159604 81.299251,42.2965867 100.25979,43.3126225 L100.349922,43.3126225 C104.209219,43.3126225 123.743327,42.2228422 133.534962,21.2384256 L129.896898,21.3039763 Z M32.8408988,20.4845926 L4.55577339,20.4845926 C9.0951591,14.3474086 18.6491731,4.24440758 32.8408988,3.33489167 L32.8408988,20.4845926 Z M69.2215352,22.074197 L97.6787312,22.074197 L97.6787312,39.7646911 C82.8151108,37.5195798 71.1225054,24.335696 69.2215352,22.074197 L69.2215352,22.074197 Z M148.09541,22.074197 L139.295229,36.700196 L129.020158,36.700196 L138.189061,21.8038003 L130.20007,7.4563917 L139.295229,7.4563917 L148.09541,22.074197 Z M163,22.074197 L154.191625,36.700196 L143.924747,36.700196 L153.101845,21.8038003 L145.10466,7.4563917 L154.191625,7.4563917 L163,22.074197 Z" id="Shape"></path>
        </g>
    </g>
</svg>